# xmcd CD database file
#
# Track frame offsets:
#	150
#	18618
#	43157
#	62847
#	82240
#	97495
#	116527
#	123833
#	141521
#	158868
#
# Disc length: 2280 seconds
#
# Revision: 0
# Processed by: cddbd v1.5.2PL0 Copyright (c) Steve Scherf et al.
# Submitted via: CDex 1.51
#
DISCID=9608e60a
DTITLE=Hubert Sumlin - Heart and Soul
DYEAR=1900
DGENRE=Blues
TTITLE0=Your Foxy Self
TTITLE1=Chunky
TTITLE2=Sitting On Top Of The World
TTITLE3=I Want You
TTITLE4=Bring Your Love To Me
TTITLE5=The Red Rooster
TTITLE6=Juke
TTITLE7=No Time For Me
TTITLE8=Got The Blues
TTITLE9=Old Friends
EXTD=
EXTT0=
EXTT1=
EXTT2=
EXTT3=
EXTT4=
EXTT5=
EXTT6=
EXTT7=
EXTT8=
EXTT9=
PLAYORDER=
